<svg width="24px" height="24px" viewBox="0 0 24 24" version="1.1" xmlns="http://www.w3.org/2000/svg" xmlns:xlink="http://www.w3.org/1999/xlink">
    <!-- Generator: Sketch 51.2 (57519) - http://www.bohemiancoding.com/sketch -->
    <title>icon_账号密码登录</title>
    <desc>Created with Sketch.</desc>
    <defs></defs>
    <g id="系统管理" stroke="none" stroke-width="1" fill="none" fill-rule="evenodd">
        <g id="选择登录方式" transform="translate(-775.000000, -393.000000)" fill="#F0AD26" fill-rule="nonzero">
            <g id="Group-2" transform="translate(720.000000, 311.000000)">
                <g id="icon_账号密码登录" transform="translate(55.000000, 82.000000)">
                    <rect id="Rectangle" fill-opacity="0.129047781" x="0" y="0" width="24" height="24" rx="2"></rect>
                    <g id="lock-fill" transform="translate(5.000000, 4.000000)">
                        <path d="M12.625,6.90909091 L11.4296875,6.90909091 L11.4296875,3.09090909 C11.4296875,1.88579545 10.4224609,0.909090909 9.1796875,0.909090909 L4.8203125,0.909090909 C3.57753906,0.909090909 2.5703125,1.88579545 2.5703125,3.09090909 L2.5703125,6.90909091 L1.375,6.90909091 C1.06386719,6.90909091 0.8125,7.15284091 0.8125,7.45454545 L0.8125,14 C0.8125,14.3017045 1.06386719,14.5454545 1.375,14.5454545 L12.625,14.5454545 C12.9361328,14.5454545 13.1875,14.3017045 13.1875,14 L13.1875,7.45454545 C13.1875,7.15284091 12.9361328,6.90909091 12.625,6.90909091 Z M7.4921875,10.9488636 L7.4921875,11.8522727 C7.4921875,11.9272727 7.42890625,11.9886364 7.3515625,11.9886364 L6.6484375,11.9886364 C6.57109375,11.9886364 6.5078125,11.9272727 6.5078125,11.8522727 L6.5078125,10.9488636 C6.29511719,10.8005682 6.15625,10.5585227 6.15625,10.2840909 C6.15625,9.83238636 6.53417969,9.46590909 7,9.46590909 C7.46582031,9.46590909 7.84375,9.83238636 7.84375,10.2840909 C7.84375,10.5585227 7.70488281,10.8005682 7.4921875,10.9488636 Z M10.1640625,6.90909091 L3.8359375,6.90909091 L3.8359375,3.09090909 C3.8359375,2.56420455 4.27714844,2.13636364 4.8203125,2.13636364 L9.1796875,2.13636364 C9.72285156,2.13636364 10.1640625,2.56420455 10.1640625,3.09090909 L10.1640625,6.90909091 Z" id="Shape"></path>
                    </g>
                </g>
            </g>
        </g>
    </g>
</svg>